<svg id="Layer_1" data-name="Layer 1" xmlns="http://www.w3.org/2000/svg" xmlns:xlink="http://www.w3.org/1999/xlink" viewBox="0 0 137 40"><defs><style>.cls-1{fill:none;}.cls-2{clip-path:url(#clip-path);}.cls-3{fill:#a6a5a5;}.cls-4,.cls-5{fill:#fff;}.cls-4{fill-rule:evenodd;}</style><clipPath id="clip-path"><rect class="cls-1" width="137" height="39.94"/></clipPath></defs><g class="cls-2"><path d="M132,40H5a5,5,0,0,1-5-5V5A5,5,0,0,1,5,0H132a5,5,0,0,1,5,5V35a5,5,0,0,1-5,5"/><path class="cls-3" d="M132,.8A4.2,4.2,0,0,1,136.2,5V35a4.2,4.2,0,0,1-4.2,4.2H5A4.2,4.2,0,0,1,.8,35V5A4.2,4.2,0,0,1,5,.8H132m0-.8H5A5,5,0,0,0,0,5V35a5,5,0,0,0,5,5H132a5,5,0,0,0,5-5V5A5,5,0,0,0,132,0Z"/></g><path class="cls-4" d="M40.57,30.25a20.35,20.35,0,0,1-11.46,3.5,20.76,20.76,0,0,1-14-5.34c-.29-.26,0-.62.32-.42a28.13,28.13,0,0,0,14,3.72,27.77,27.77,0,0,0,10.68-2.19c.52-.22,1,.35.45.73"/><path class="cls-4" d="M41.85,28.77c-.39-.5-2.61-.24-3.61-.12-.3,0-.35-.22-.08-.42,1.78-1.24,4.68-.88,5-.46s-.09,3.33-1.75,4.72c-.26.21-.5.1-.39-.18.38-.94,1.21-3,.81-3.54"/><path class="cls-4" d="M38.31,19.44V18.23a.31.31,0,0,1,.31-.31H44a.31.31,0,0,1,.31.31v1a1.71,1.71,0,0,1-.41.76l-2.81,4a6,6,0,0,1,3.1.66.54.54,0,0,1,.28.47v1.3a.29.29,0,0,1-.4.27,6.26,6.26,0,0,0-5.73,0c-.18.1-.38-.1-.38-.28V25.24a1.45,1.45,0,0,1,.2-.83l3.26-4.67H38.62a.3.3,0,0,1-.31-.3"/><path class="cls-4" d="M18.53,27H16.88a.33.33,0,0,1-.3-.28V18.25a.3.3,0,0,1,.31-.3h1.54a.32.32,0,0,1,.3.29v1.1h0a2.27,2.27,0,0,1,4.31,0,2.44,2.44,0,0,1,4.19-.64,4.47,4.47,0,0,1,.42,2.66v5.34a.32.32,0,0,1-.32.31H25.72a.32.32,0,0,1-.3-.31V22.2a11.87,11.87,0,0,0,0-1.58.86.86,0,0,0-1-.73,1.09,1.09,0,0,0-1,.69,5.11,5.11,0,0,0-.15,1.62v4.49A.32.32,0,0,1,23,27H21.3a.33.33,0,0,1-.3-.31V22.2c0-.94.16-2.33-1-2.33s-1.14,1.35-1.14,2.33v4.49a.32.32,0,0,1-.32.31"/><path class="cls-4" d="M49,17.77c2.45,0,3.77,2.1,3.77,4.77S51.33,27.17,49,27.17s-3.71-2.1-3.71-4.72,1.32-4.68,3.71-4.68m0,1.73c-1.21,0-1.29,1.65-1.29,2.68s0,3.25,1.28,3.25,1.34-1.78,1.34-2.87a7.63,7.63,0,0,0-.25-2.24A1,1,0,0,0,49,19.5Z"/><path class="cls-4" d="M56,27H54.32a.32.32,0,0,1-.29-.31V18.22a.32.32,0,0,1,.32-.27h1.53a.32.32,0,0,1,.29.24v1.3h0a2.25,2.25,0,0,1,2.25-1.71,2.16,2.16,0,0,1,1.93,1,5.42,5.42,0,0,1,.43,2.64v5.33a.32.32,0,0,1-.32.27H58.83a.31.31,0,0,1-.29-.27v-4.6c0-.92.1-2.28-1-2.28a1.07,1.07,0,0,0-1,.68,3.77,3.77,0,0,0-.26,1.6v4.56A.33.33,0,0,1,56,27"/><path class="cls-4" d="M34,23a3.26,3.26,0,0,1-.31,1.75,1.33,1.33,0,0,1-1.15.75c-.63,0-1-.48-1-1.19,0-1.41,1.26-1.67,2.46-1.67V23m1.66,4a.35.35,0,0,1-.39,0,3.86,3.86,0,0,1-.95-1.1,3.23,3.23,0,0,1-2.72,1.2,2.34,2.34,0,0,1-2.47-2.57,2.79,2.79,0,0,1,1.76-2.69A11.32,11.32,0,0,1,34,21.27v-.21a2.06,2.06,0,0,0-.21-1.2,1.1,1.1,0,0,0-.92-.43,1.27,1.27,0,0,0-1.33,1,.35.35,0,0,1-.28.31l-1.6-.17a.3.3,0,0,1-.25-.35c.37-1.94,2.12-2.53,3.69-2.53a3.77,3.77,0,0,1,2.49.83c.8.75.72,1.75.72,2.84v2.57a2.23,2.23,0,0,0,.62,1.52c.11.16.13.33,0,.44-.34.28-.94.81-1.27,1.1Z"/><path class="cls-4" d="M12.36,23a3.17,3.17,0,0,1-.31,1.75,1.33,1.33,0,0,1-1.14.75c-.63,0-1-.48-1-1.19,0-1.41,1.26-1.67,2.45-1.67V23M14,27a.35.35,0,0,1-.39,0,4,4,0,0,1-.94-1.1A3.26,3.26,0,0,1,10,27.11,2.34,2.34,0,0,1,7.5,24.54a2.79,2.79,0,0,1,1.76-2.69,11.18,11.18,0,0,1,3.1-.58v-.21a2.14,2.14,0,0,0-.2-1.2,1.12,1.12,0,0,0-.93-.43,1.26,1.26,0,0,0-1.32,1,.36.36,0,0,1-.29.31L8,20.56a.3.3,0,0,1-.24-.35c.36-1.94,2.12-2.53,3.69-2.53a3.72,3.72,0,0,1,2.48.83c.8.75.73,1.75.73,2.84v2.57a2.23,2.23,0,0,0,.62,1.52c.1.16.13.33,0,.44L14,27Z"/><path class="cls-5" d="M67.49,27.09a2.7,2.7,0,0,1-1.95-.72,2.49,2.49,0,0,1-.75-1.88,2.47,2.47,0,0,1,.92-2,3.72,3.72,0,0,1,2.47-.76,8.86,8.86,0,0,1,2,.26v-1a1.62,1.62,0,0,0-.38-1.22,2,2,0,0,0-1.33-.34,7.33,7.33,0,0,0-1.26.11,7.84,7.84,0,0,0-1.31.32,1.18,1.18,0,0,1-.29.05c-.15,0-.22-.11-.22-.33v-.64a.59.59,0,0,1,.07-.34.76.76,0,0,1,.36-.22,8.11,8.11,0,0,1,3-.52,3.76,3.76,0,0,1,2.49.69,2.69,2.69,0,0,1,.8,2.15v5.81a.33.33,0,0,1-.38.37H70.8c-.26,0-.4-.11-.43-.34l-.09-.5A5,5,0,0,1,69,26.8a3.84,3.84,0,0,1-1.46.29m.57-1.44a3,3,0,0,0,1-.22,4.45,4.45,0,0,0,1.07-.61V23.17A7.84,7.84,0,0,0,68.56,23c-1.2,0-1.79.46-1.79,1.39a1.25,1.25,0,0,0,.34.94A1.33,1.33,0,0,0,68.06,25.65Z"/><path class="cls-5" d="M74.3,30.38a.33.33,0,0,1-.38-.38V18.45a.33.33,0,0,1,.38-.38h1a.39.39,0,0,1,.44.34l.11.53a4.53,4.53,0,0,1,1.33-.84,4.2,4.2,0,0,1,1.53-.29A3.18,3.18,0,0,1,81.27,19a5.13,5.13,0,0,1,1,3.29,6.23,6.23,0,0,1-.47,2.5,3.82,3.82,0,0,1-1.32,1.64,3.44,3.44,0,0,1-1.93.56,3.94,3.94,0,0,1-1.4-.25A3.62,3.62,0,0,1,76,26.08V30a.33.33,0,0,1-.38.38H74.3m3.7-5a1.88,1.88,0,0,0,1.64-.75,3.92,3.92,0,0,0,.53-2.28,3.89,3.89,0,0,0-.52-2.25A1.87,1.87,0,0,0,78,19.41a3.54,3.54,0,0,0-2.07.66v4.68A3.53,3.53,0,0,0,78,25.42Z"/><path class="cls-5" d="M84.08,30.38A.33.33,0,0,1,83.7,30V18.45a.33.33,0,0,1,.38-.38h1a.41.41,0,0,1,.45.34l.1.53a4.58,4.58,0,0,1,1.34-.84,4.11,4.11,0,0,1,1.52-.29A3.18,3.18,0,0,1,91.05,19a5.13,5.13,0,0,1,1,3.29,6.06,6.06,0,0,1-.47,2.5,3.82,3.82,0,0,1-1.32,1.64A3.42,3.42,0,0,1,88.3,27a3.88,3.88,0,0,1-1.39-.25,3.42,3.42,0,0,1-1.17-.69V30a.33.33,0,0,1-.38.38H84.08m3.71-5a1.86,1.86,0,0,0,1.63-.75A3.91,3.91,0,0,0,90,22.39a3.89,3.89,0,0,0-.53-2.25,1.86,1.86,0,0,0-1.63-.73,3.53,3.53,0,0,0-2.06.66v4.68A3.49,3.49,0,0,0,87.79,25.42Z"/><path class="cls-5" d="M95.84,27.09a7.1,7.1,0,0,1-2.52-.44.8.8,0,0,1-.35-.22.7.7,0,0,1-.08-.37v-.62c0-.23.08-.35.24-.35a2.32,2.32,0,0,1,.48.11,8.21,8.21,0,0,0,2.21.34,2.42,2.42,0,0,0,1.26-.26.94.94,0,0,0,.39-.82.79.79,0,0,0-.24-.61,2.6,2.6,0,0,0-.89-.48l-1.43-.55A2.53,2.53,0,0,1,93,20.41a2.32,2.32,0,0,1,.89-1.91,3.84,3.84,0,0,1,2.4-.69,6.78,6.78,0,0,1,2.15.36.66.66,0,0,1,.34.2.6.6,0,0,1,.09.38v.61a.41.41,0,0,1-.06.26c0,.06-.11.08-.22.08l-.43-.08a7.52,7.52,0,0,0-1.75-.26,2.34,2.34,0,0,0-1.17.23.82.82,0,0,0-.37.73.75.75,0,0,0,.27.61,3.38,3.38,0,0,0,1,.51L97.4,22a3.45,3.45,0,0,1,1.49.95,2.06,2.06,0,0,1,.46,1.39,2.48,2.48,0,0,1-.93,2,4,4,0,0,1-2.58.75"/><path class="cls-5" d="M104.17,27a2.8,2.8,0,0,1-2-.63,2.61,2.61,0,0,1-.66-1.95V19.62h-1.1a.34.34,0,0,1-.38-.38v-.5a.45.45,0,0,1,.09-.32.49.49,0,0,1,.27-.13l1.19-.17.26-2.09a.41.41,0,0,1,.12-.29.46.46,0,0,1,.31-.08h.9a.33.33,0,0,1,.38.37v2h2.11a.33.33,0,0,1,.38.38v.79a.33.33,0,0,1-.38.38h-2.11v4.65a1,1,0,0,0,.28.83,1.44,1.44,0,0,0,1,.25,2.76,2.76,0,0,0,.63-.05,2.4,2.4,0,0,1,.4-.05c.19,0,.29.11.29.33v.62a.6.6,0,0,1-.09.38.71.71,0,0,1-.36.19,6.06,6.06,0,0,1-1.48.18"/><path class="cls-5" d="M110.88,27.09a4,4,0,0,1-3.12-1.23,4.88,4.88,0,0,1-1.12-3.42A4.85,4.85,0,0,1,107.76,19,4.6,4.6,0,0,1,114,19a4.89,4.89,0,0,1,1.11,3.41A4.92,4.92,0,0,1,114,25.86a4,4,0,0,1-3.12,1.23m0-1.6c1.44,0,2.17-1,2.17-3s-.73-3-2.17-3-2.17,1-2.17,3S109.43,25.49,110.88,25.49Z"/><path class="cls-5" d="M116.94,26.83a.33.33,0,0,1-.38-.37v-8a.33.33,0,0,1,.38-.38h.91a.57.57,0,0,1,.34.07.37.37,0,0,1,.13.25l.21,1a4.52,4.52,0,0,1,1.29-1.07,2.75,2.75,0,0,1,1.31-.31h.06a1.34,1.34,0,0,1,.38,0,.35.35,0,0,1,.2.15.82.82,0,0,1,.06.38v.93c0,.24-.1.36-.31.36l-.28,0-.39,0a4,4,0,0,0-2.26.66v6c0,.25-.12.37-.38.37h-1.27"/><path class="cls-5" d="M126.7,27.09a4.36,4.36,0,0,1-3.29-1.17,4.78,4.78,0,0,1-1.12-3.41,5.06,5.06,0,0,1,1.1-3.46,3.85,3.85,0,0,1,3-1.24,3.51,3.51,0,0,1,2.6.92,3.57,3.57,0,0,1,.9,2.61,10.4,10.4,0,0,1-.08,1.22.53.53,0,0,1-.13.3.36.36,0,0,1-.25.08h-5.31a2.65,2.65,0,0,0,.73,1.92,3.08,3.08,0,0,0,2.1.61,8.2,8.2,0,0,0,2.17-.32l.2-.06h.12c.18,0,.26.11.26.34V26a.69.69,0,0,1-.07.37.77.77,0,0,1-.36.22,7,7,0,0,1-2.62.46m1.45-5.51v-.14a2.42,2.42,0,0,0-.46-1.6,1.62,1.62,0,0,0-1.33-.55,2,2,0,0,0-1.52.62,2.67,2.67,0,0,0-.67,1.67Z"/><path class="cls-5" d="M47.71,12.67a1.41,1.41,0,0,1-1-.36,1.27,1.27,0,0,1-.38-1,1.29,1.29,0,0,1,.46-1A1.89,1.89,0,0,1,48,9.89a4.52,4.52,0,0,1,1.14.16v-.6A.87.87,0,0,0,49,8.77a1.14,1.14,0,0,0-.75-.2A4.19,4.19,0,0,0,47,8.75l-.26.06c-.07,0-.11-.05-.11-.16V8.41a.25.25,0,0,1,0-.17.27.27,0,0,1,.14-.1,3.22,3.22,0,0,1,.71-.2,4.89,4.89,0,0,1,.85-.08,1.86,1.86,0,0,1,1.26.36A1.34,1.34,0,0,1,50,9.3v3.08a.16.16,0,0,1-.18.18h-.38a.18.18,0,0,1-.2-.17l0-.3a2.25,2.25,0,0,1-.71.43,2.16,2.16,0,0,1-.78.15m.22-.67a1.83,1.83,0,0,0,.62-.12,2.24,2.24,0,0,0,.62-.34v-.92a4.56,4.56,0,0,0-1-.11c-.67,0-1,.26-1,.78a.7.7,0,0,0,.19.53A.73.73,0,0,0,47.93,12Z"/><path class="cls-5" d="M52.48,12.56a.28.28,0,0,1-.18,0s-.08-.09-.13-.2l-1.59-4a.49.49,0,0,0,0-.11.44.44,0,0,1,0-.1c0-.08,0-.12.13-.12h.54a.37.37,0,0,1,.18,0,.42.42,0,0,1,.12.21l1.23,3.51L54,8.24A.54.54,0,0,1,54.07,8a.41.41,0,0,1,.19,0h.5c.09,0,.13,0,.13.12a.44.44,0,0,1,0,.1.49.49,0,0,0,0,.11l-1.59,4a.38.38,0,0,1-.12.2.3.3,0,0,1-.18,0h-.46"/><path class="cls-5" d="M56.66,12.67a1.45,1.45,0,0,1-1-.36,1.42,1.42,0,0,1,.09-2A1.85,1.85,0,0,1,57,9.89a4.45,4.45,0,0,1,1.13.16v-.6a.87.87,0,0,0-.22-.68,1.1,1.1,0,0,0-.75-.2,4.12,4.12,0,0,0-1.21.18l-.26.06c-.08,0-.11-.05-.11-.16V8.41a.34.34,0,0,1,0-.17.36.36,0,0,1,.15-.1,3.12,3.12,0,0,1,.7-.2,5,5,0,0,1,.85-.08,1.89,1.89,0,0,1,1.27.36A1.34,1.34,0,0,1,59,9.3v3.08a.16.16,0,0,1-.18.18h-.39a.19.19,0,0,1-.2-.17l0-.3a2.5,2.5,0,0,1-.71.43,2.24,2.24,0,0,1-.78.15m.21-.67a1.75,1.75,0,0,0,.62-.12,2,2,0,0,0,.62-.34v-.92a4.47,4.47,0,0,0-1-.11q-1,0-1,.78a.74.74,0,0,0,.19.53A.77.77,0,0,0,56.87,12Z"/><path class="cls-5" d="M60.63,7.19A.56.56,0,0,1,60.22,7a.52.52,0,0,1-.14-.39.53.53,0,0,1,.14-.4.56.56,0,0,1,.41-.15.54.54,0,0,1,.41.15.54.54,0,0,1,.15.4A.53.53,0,0,1,61,7a.54.54,0,0,1-.41.15m-.27,5.37a.16.16,0,0,1-.18-.18V8.17A.16.16,0,0,1,60.36,8h.54a.17.17,0,0,1,.18.18v4.21a.16.16,0,0,1-.18.18Z"/><path class="cls-5" d="M63.29,12.6a1,1,0,0,1-.73-.27,1.12,1.12,0,0,1-.25-.79V6.08a.16.16,0,0,1,.18-.18H63a.16.16,0,0,1,.18.18v5.41a.49.49,0,0,0,.08.3.4.4,0,0,0,.29.09h.21a.17.17,0,0,1,.13.05.26.26,0,0,1,0,.14v.28a.26.26,0,0,1,0,.14.27.27,0,0,1-.14.08,2.42,2.42,0,0,1-.47,0"/><path class="cls-5" d="M65.85,12.67a1.44,1.44,0,0,1-1-.36,1.42,1.42,0,0,1,.09-2,1.85,1.85,0,0,1,1.26-.4,4.51,4.51,0,0,1,1.13.16v-.6a.87.87,0,0,0-.22-.68,1.14,1.14,0,0,0-.75-.2,4.24,4.24,0,0,0-1.22.18l-.26.06c-.07,0-.1-.05-.1-.16V8.41a.34.34,0,0,1,0-.17.32.32,0,0,1,.14-.1,3.39,3.39,0,0,1,.71-.2,5,5,0,0,1,.85-.08,1.86,1.86,0,0,1,1.26.36,1.34,1.34,0,0,1,.41,1.08v3.08a.16.16,0,0,1-.18.18h-.39a.19.19,0,0,1-.2-.17l0-.3a2.42,2.42,0,0,1-.72.43,2.16,2.16,0,0,1-.78.15m.22-.67a1.79,1.79,0,0,0,.62-.12,2.1,2.1,0,0,0,.62-.34v-.92a4.47,4.47,0,0,0-1-.11q-1,0-1,.78a.7.7,0,0,0,.19.53A.77.77,0,0,0,66.07,12Z"/><path class="cls-5" d="M71.63,12.66a2.06,2.06,0,0,1-1.45-.58l-.06.3a.19.19,0,0,1-.21.18h-.38c-.13,0-.18-.06-.18-.18V6.08c0-.12.05-.18.18-.18h.53a.16.16,0,0,1,.18.18V8.43a2.2,2.2,0,0,1,1.45-.57,1.66,1.66,0,0,1,1.38.63,2.68,2.68,0,0,1,.51,1.73A2.71,2.71,0,0,1,73,12a1.72,1.72,0,0,1-1.41.67m-.2-.72c.82,0,1.24-.56,1.24-1.68A2.1,2.1,0,0,0,72.36,9a1.06,1.06,0,0,0-.92-.41,2,2,0,0,0-1.2.41V11.5A1.91,1.91,0,0,0,71.43,11.94Z"/><path class="cls-5" d="M75.52,12.6a1,1,0,0,1-.73-.27,1.12,1.12,0,0,1-.25-.79V6.08a.16.16,0,0,1,.18-.18h.53a.16.16,0,0,1,.18.18v5.41a.43.43,0,0,0,.09.3.36.36,0,0,0,.28.09H76a.17.17,0,0,1,.13.05.26.26,0,0,1,0,.14v.28a.26.26,0,0,1,0,.14.27.27,0,0,1-.14.08,2.42,2.42,0,0,1-.47,0"/><path class="cls-5" d="M79,12.69a2.18,2.18,0,0,1-1.68-.61,2.57,2.57,0,0,1-.57-1.81A2.55,2.55,0,0,1,77.3,8.5a2,2,0,0,1,1.59-.64,1.73,1.73,0,0,1,1.31.48,1.88,1.88,0,0,1,.46,1.36,3.92,3.92,0,0,1,0,.59.27.27,0,0,1,0,.14.18.18,0,0,1-.13,0H77.6A1.61,1.61,0,0,0,78,11.61a1.51,1.51,0,0,0,1.13.37,4.41,4.41,0,0,0,.52,0,5.2,5.2,0,0,0,.62-.16l.11,0h.08c.08,0,.12.05.12.16v.25a.25.25,0,0,1,0,.17.32.32,0,0,1-.15.1,3,3,0,0,1-.64.19,3.81,3.81,0,0,1-.75.07m.86-2.81a1.49,1.49,0,0,0,0-.24,1.21,1.21,0,0,0-.26-.83,1,1,0,0,0-.75-.28,1.16,1.16,0,0,0-.88.34,1.6,1.6,0,0,0-.36,1Z"/><path class="cls-5" d="M84.93,12.67a1.44,1.44,0,0,1-1-.36,1.3,1.3,0,0,1-.38-1,1.27,1.27,0,0,1,.47-1,1.85,1.85,0,0,1,1.26-.4,4.51,4.51,0,0,1,1.13.16v-.6a.87.87,0,0,0-.22-.68,1.14,1.14,0,0,0-.75-.2,4.19,4.19,0,0,0-1.22.18l-.26.06c-.07,0-.11-.05-.11-.16V8.41a.32.32,0,0,1,0-.17.26.26,0,0,1,.15-.1,3.12,3.12,0,0,1,.7-.2,5,5,0,0,1,.85-.08,1.86,1.86,0,0,1,1.26.36,1.34,1.34,0,0,1,.41,1.08v3.08a.16.16,0,0,1-.18.18h-.39a.19.19,0,0,1-.2-.17l0-.3a2.42,2.42,0,0,1-.72.43,2.16,2.16,0,0,1-.78.15m.22-.67a1.75,1.75,0,0,0,.62-.12,2.1,2.1,0,0,0,.62-.34v-.92a4.47,4.47,0,0,0-1-.11q-1,0-1,.78a.7.7,0,0,0,.19.53A.77.77,0,0,0,85.15,12Z"/><path class="cls-5" d="M90,12.62a1.13,1.13,0,0,1-1.28-1.28V8.7h-.64c-.13,0-.18-.06-.18-.18V8.29a.17.17,0,0,1,0-.13.3.3,0,0,1,.15-.07L88.74,8l.12-1.11a.17.17,0,0,1,.19-.18h.38c.11,0,.17.06.17.18V8h1.17a.17.17,0,0,1,.19.18v.35a.17.17,0,0,1-.19.18H89.6v2.6a.62.62,0,0,0,.15.47.76.76,0,0,0,.51.13,2.27,2.27,0,0,0,.42,0l.18,0a.11.11,0,0,1,.1,0A.23.23,0,0,1,91,12v.24a.42.42,0,0,1,0,.18.27.27,0,0,1-.15.09,2.86,2.86,0,0,1-.82.11"/></svg>