<svg xmlns="http://www.w3.org/2000/svg" width="135" height="40"><path d="M130 40H5c-2.75 0-5-2.25-5-5V5c0-2.75 2.25-5 5-5h125c2.75 0 5 2.25 5 5v30c0 2.75-2.25 5-5 5z"/><path d="M130 .8c2.316 0 4.2 1.884 4.2 4.2v30c0 2.316-1.884 4.2-4.2 4.2H5A4.206 4.206 0 0 1 .8 35V5C.8 2.684 2.684.8 5 .8h125m0-.8H5C2.25 0 0 2.25 0 5v30c0 2.75 2.25 5 5 5h125c2.75 0 5-2.25 5-5V5c0-2.75-2.25-5-5-5z" fill="#a6a6a6"/><path d="M47.418 10.243c0 .838-.248 1.505-.745 2.003-.564.592-1.3.888-2.204.888-.866 0-1.603-.3-2.208-.9-.606-.601-.909-1.345-.909-2.233 0-.889.303-1.633.909-2.233.605-.601 1.342-.901 2.208-.901.43 0 .841.084 1.231.252.391.168.704.391.938.67l-.527.528c-.397-.475-.944-.712-1.643-.712-.632 0-1.178.222-1.639.666s-.691 1.021-.691 1.73.23 1.286.691 1.73a2.285 2.285 0 0 0 1.639.666c.67 0 1.229-.223 1.676-.67.29-.291.458-.696.503-1.215h-2.179v-.721h2.907c.03.156.043.307.043.452zm4.61-2.506h-2.732v1.902h2.464v.721h-2.464v1.902h2.732V13h-3.503V7h3.503v.737zM55.279 13h-.771V7.737h-1.676V7h4.123v.737h-1.676V13zm4.659 0V7h.771v6h-.771zm4.19 0h-.771V7.737h-1.676V7h4.123v.737h-1.676V13zm9.481-.775c-.59.607-1.323.909-2.2.909s-1.61-.303-2.199-.909c-.59-.606-.884-1.348-.884-2.225s.294-1.619.884-2.225c.589-.607 1.322-.91 2.199-.91.872 0 1.604.305 2.196.914s.888 1.349.888 2.221c0 .877-.295 1.619-.884 2.225zm-3.83-.503c.444.45.987.674 1.63.674s1.187-.225 1.63-.674c.444-.45.667-1.024.667-1.722s-.223-1.272-.667-1.722c-.443-.45-.987-.674-1.63-.674s-1.186.225-1.63.674c-.443.45-.666 1.024-.666 1.722s.223 1.272.666 1.722zM75.575 13V7h.938l2.916 4.667h.033l-.033-1.156V7h.771v6h-.805l-3.051-4.894h-.033l.033 1.156V13h-.769z" fill="#fff" stroke="#fff" stroke-width=".2" stroke-miterlimit="10"/><path d="M68.136 21.752c-2.352 0-4.269 1.788-4.269 4.253 0 2.449 1.917 4.253 4.269 4.253s4.269-1.804 4.269-4.253c0-2.465-1.917-4.253-4.269-4.253zm0 6.83c-1.289 0-2.401-1.063-2.401-2.578 0-1.53 1.112-2.578 2.401-2.578s2.4 1.047 2.4 2.578c0 1.515-1.111 2.578-2.4 2.578zm-9.313-6.83c-2.352 0-4.269 1.788-4.269 4.253 0 2.449 1.917 4.253 4.269 4.253s4.269-1.804 4.269-4.253c0-2.465-1.917-4.253-4.269-4.253zm0 6.83c-1.289 0-2.401-1.063-2.401-2.578 0-1.53 1.112-2.578 2.401-2.578s2.4 1.047 2.4 2.578c0 1.515-1.112 2.578-2.4 2.578zm-11.079-5.525v1.804h4.318c-.129 1.015-.467 1.756-.983 2.272-.628.628-1.611 1.321-3.335 1.321-2.658 0-4.736-2.143-4.736-4.801s2.078-4.801 4.736-4.801c1.434 0 2.481.564 3.254 1.289l1.273-1.273c-1.079-1.031-2.513-1.82-4.527-1.82-3.641 0-6.702 2.964-6.702 6.605s3.061 6.605 6.702 6.605c1.966 0 3.448-.644 4.608-1.853 1.192-1.192 1.563-2.868 1.563-4.221a5.847 5.847 0 0 0-.097-1.128l-6.074.001zm45.308 1.401c-.354-.951-1.434-2.706-3.641-2.706-2.191 0-4.011 1.724-4.011 4.253 0 2.384 1.804 4.253 4.221 4.253 1.949 0 3.077-1.192 3.544-1.885l-1.45-.967c-.483.709-1.144 1.176-2.094 1.176-.951 0-1.627-.435-2.062-1.289l5.687-2.352-.194-.483zm-5.8 1.418c-.048-1.643 1.273-2.481 2.223-2.481.741 0 1.369.37 1.579.902l-3.802 1.579zM82.629 30h1.869V17.499h-1.869V30zm-3.062-7.298h-.064c-.419-.499-1.224-.95-2.239-.95-2.127 0-4.076 1.869-4.076 4.269 0 2.384 1.949 4.237 4.076 4.237 1.015 0 1.82-.451 2.239-.967h.064v.612c0 1.627-.87 2.497-2.272 2.497-1.144 0-1.853-.822-2.143-1.514l-1.627.677c.467 1.128 1.708 2.513 3.77 2.513 2.191 0 4.044-1.289 4.044-4.43V22.01h-1.772v.692zm-2.142 5.88c-1.289 0-2.368-1.079-2.368-2.562 0-1.498 1.079-2.594 2.368-2.594 1.273 0 2.272 1.095 2.272 2.594-.001 1.483-.999 2.562-2.272 2.562zm24.381-11.083h-4.471V30h1.866v-4.736h2.606c2.068 0 4.101-1.497 4.101-3.882s-2.034-3.883-4.102-3.883zm.048 6.025H99.2v-4.285h2.654c1.395 0 2.187 1.155 2.187 2.143 0 .968-.792 2.142-2.187 2.142zm11.532-1.795c-1.351 0-2.75.595-3.329 1.914l1.657.692c.354-.692 1.013-.917 1.705-.917.965 0 1.946.579 1.962 1.608v.129c-.338-.193-1.062-.483-1.946-.483-1.785 0-3.603.981-3.603 2.815 0 1.673 1.464 2.75 3.104 2.75 1.255 0 1.946-.563 2.38-1.222h.064v.965h1.801v-4.793c0-2.22-1.656-3.458-3.795-3.458zm-.225 6.851c-.611 0-1.464-.306-1.464-1.062 0-.965 1.062-1.335 1.978-1.335.82 0 1.206.177 1.705.418a2.263 2.263 0 0 1-2.219 1.979zm10.582-6.578l-2.139 5.42h-.064l-2.219-5.42h-2.01l3.329 7.575-1.898 4.214h1.946l5.131-11.789h-2.076zM106.936 30h1.866V17.499h-1.866V30z" fill="#fff"/><linearGradient id="a" gradientUnits="userSpaceOnUse" x1="21.8" y1="574.71" x2="5.017" y2="591.492" gradientTransform="translate(0 -566)"><stop offset="0" stop-color="#00a0ff"/><stop offset=".007" stop-color="#00a1ff"/><stop offset=".26" stop-color="#00beff"/><stop offset=".512" stop-color="#00d2ff"/><stop offset=".76" stop-color="#00dfff"/><stop offset="1" stop-color="#00e3ff"/></linearGradient><path d="M10.435 7.538c-.291.308-.463.786-.463 1.405v22.116c0 .62.172 1.097.463 1.405l.074.072 12.389-12.389v-.292L10.509 7.465l-.074.073z" fill="url(#a)"/><linearGradient id="b" gradientUnits="userSpaceOnUse" x1="33.834" y1="586.001" x2="9.637" y2="586.001" gradientTransform="translate(0 -566)"><stop offset="0" stop-color="#ffe000"/><stop offset=".409" stop-color="#ffbd00"/><stop offset=".775" stop-color="orange"/><stop offset="1" stop-color="#ff9c00"/></linearGradient><path d="M27.028 24.278l-4.129-4.131v-.292l4.13-4.13.093.053 4.893 2.78c1.398.794 1.398 2.093 0 2.888l-4.893 2.78-.094.052z" fill="url(#b)"/><linearGradient id="c" gradientUnits="userSpaceOnUse" x1="24.827" y1="588.296" x2="2.069" y2="611.054" gradientTransform="translate(0 -566)"><stop offset="0" stop-color="#ff3a44"/><stop offset="1" stop-color="#c31162"/></linearGradient><path d="M27.122 24.225l-4.223-4.224-12.464 12.463c.461.488 1.221.548 2.078.061l14.609-8.3" fill="url(#c)"/><linearGradient id="d" gradientUnits="userSpaceOnUse" x1="7.297" y1="566.176" x2="17.46" y2="576.339" gradientTransform="translate(0 -566)"><stop offset="0" stop-color="#32a071"/><stop offset=".069" stop-color="#2da771"/><stop offset=".476" stop-color="#15cf74"/><stop offset=".801" stop-color="#06e775"/><stop offset="1" stop-color="#00f076"/></linearGradient><path d="M27.122 15.777l-14.608-8.3c-.857-.487-1.617-.426-2.078.061l12.463 12.463 4.223-4.224z" fill="url(#d)"/><path d="M27.029 24.132l-14.515 8.247c-.812.461-1.538.431-2.004.011l-.074.075.074.072c.466.42 1.192.451 2.004-.011l14.608-8.3-.093-.094z" opacity=".2"/><path d="M10.435 32.318c-.291-.308-.463-.786-.463-1.405v.146c0 .619.172 1.097.463 1.405l.074-.075-.074-.071zm21.58-11.019l-4.986 2.833.093.093 4.893-2.78c.699-.397 1.048-.92 1.048-1.443-.059.473-.415.937-1.048 1.297z" opacity=".12"/><path d="M12.514 7.623l19.501 11.08c.634.36.989.824 1.048 1.298 0-.523-.349-1.047-1.048-1.444L12.514 7.477c-1.398-.794-2.541-.135-2.541 1.466v.146c0-1.6 1.143-2.26 2.541-1.466z" opacity=".25" fill="#fff"/></svg>