<svg xmlns="http://www.w3.org/2000/svg" viewBox="0 0 50 50">
  <linearGradient id="a" gradientUnits="userSpaceOnUse" x1="14.081" y1="-24.513" x2="35.921" y2="-69.491" gradientTransform="matrix(1 0 0 -1 0 -22)">
    <stop offset="0" stop-color="#6afff3"/>
    <stop offset=".506" stop-color="#1cbfff"/>
    <stop offset="1" stop-color="#bf71ff"/>
  </linearGradient>
  <path d="M20.021 17.938a.446.446 0 0 0 .438.125c3.562-.917 8.188-2.75 11.583-6.312v18.042a.449.449 0 0 0 .896 0V11.312c0-.792.542-1.521 1.312-1.667 1.062-.208 2 .604 2 1.625V34a.449.449 0 0 0 .896 0v-5.292c2.042-.125 3.646-1.812 3.646-3.875s-1.625-3.75-3.646-3.875v-9.563c0-1.333-.979-2.542-2.312-2.667-1-.104-1.875.375-2.396 1.125-3.167 4.125-8.062 6.25-12.25 7.312-.292.085-.417.523-.167.773zm19.917 6.916a2.973 2.973 0 0 1-2.729 2.958v-5.896a2.94 2.94 0 0 1 2.729 2.938zm2.854 17.688C47.25 38.021 50 31.833 50 25 50 11.208 38.792 0 25 0 18.167 0 11.979 2.75 7.458 7.208c-.02.021-.041.021-.062.042-.021.021-.021.042-.042.042C2.812 11.833 0 18.083 0 25c0 13.792 11.208 25 25 25 6.917 0 13.167-2.812 17.708-7.354.021-.021.042-.021.042-.042.021-.021.021-.042.042-.062zM49.083 25c0 6.438-2.542 12.292-6.667 16.625L8.375 7.583C12.708 3.458 18.562.917 25 .917 38.292.917 49.083 11.708 49.083 25zM.917 25c0-6.521 2.604-12.438 6.813-16.771l34.042 34.042c-4.333 4.208-10.25 6.812-16.771 6.812C11.708 49.083.917 38.292.917 25zm36.166 14.125c0 .042-.021.083-.021.125 0 .021-.021.042-.021.062a2.581 2.581 0 0 1-2.562 1.708c-.792-.042-1.458-.458-1.896-1.062-.021-.021-.062-.042-.083-.063-3.896-5.083-10.292-7.125-15.208-7.958l1.458 8.417c.25 1.562-.792 3.062-2.333 3.333a2.36 2.36 0 0 1-.542.042 2.91 2.91 0 0 1-2.876-2.48l-1.521-9.875c-3.333-.333-5.917-3.125-5.917-6.521a6.562 6.562 0 0 1 6.562-6.563h.021c.146 0 1.646-.021 3.792-.292a.46.46 0 0 1 .396.125.465.465 0 0 1-.271.792c-2.104.271-3.583.292-3.896.292h-.042a5.65 5.65 0 0 0-5.646 5.646 5.632 5.632 0 0 0 5.417 5.646c.021 0 .042.021.063.021h.042l.125.062c.021 0 .021.021.042.021.042.021.062.062.083.083.021.021.021.021.021.042.021.042.021.062.042.104 0 .021.021.021.021.042l1.562 10.229c.083.542.375 1.021.812 1.333.438.312.979.438 1.521.333a1.996 1.996 0 0 0 1.604-2.292l-1.562-9.021v-.104-.062-.021c0-.021 0-.021.021-.042a.478.478 0 0 1 .5-.333c4.708.708 10.958 2.521 15.25 7.062v-3.021c0-.417.5-.604.771-.312a.46.46 0 0 1 .125.312v3.5c0 1.021.938 1.833 2 1.625a1.626 1.626 0 0 0 1.208-1.104v-.021a.434.434 0 0 1 .417-.271c.313-.018.521.19.521.461z" fill="url(#a)"/>
</svg>
