<?xml version="1.0" encoding="utf-8"?>
<svg version="1.1" id="Layer_1" xmlns="http://www.w3.org/2000/svg" xmlns:xlink="http://www.w3.org/1999/xlink" x="0px" y="0px"
	 viewBox="0 0 50 50" style="enable-background:new 0 0 50 50;" xml:space="preserve">
<style type="text/css">
	.st0{fill:url(#SVGID_1_);}
</style>
<linearGradient id="SVGID_1_" gradientUnits="userSpaceOnUse" x1="-644.9358" y1="349.3016" x2="-645.1136" y2="350.0491" gradientTransform="matrix(43.0001 0 0 -53.0007 27762.0957 18564.2598)">
	<stop  offset="0" style="stop-color:#BF71FF"/>
	<stop  offset="0.53" style="stop-color:#6A6AFF"/>
	<stop  offset="1" style="stop-color:#6AFFF3"/>
</linearGradient>
<path class="st0" d="M45.283,36.521c-0.774,2.556-1.946,4.974-3.472,7.165c-2.049,3.109-4.192,6.151-7.603,6.23
	c-3.31,0.079-4.421-1.976-8.217-1.976c-3.795,0-5.024,1.925-8.193,2.057c-3.171,0.129-5.722-3.331-7.859-6.407
	c-4.242-6.287-7.547-17.717-3.121-25.488c2.081-3.799,5.978-6.208,10.259-6.343c3.243-0.062,6.257,2.226,8.256,2.226
	c1.999,0,5.689-2.741,9.528-2.328c3.651,0.117,7.034,1.975,9.126,5.012c-0.24,0.142-5.453,3.245-5.397,9.629
	C38.594,30.76,41.23,34.787,45.283,36.521z M27.65,3.857c-1.575,1.88-2.981,4.927-2.641,7.805c2.791,0.209,5.632-1.422,7.413-3.557
	C34.288,5.834,35.207,2.931,34.99,0C32.518,0.113,29.425,1.739,27.65,3.857z"/>
</svg>
