<svg xmlns="http://www.w3.org/2000/svg" viewBox="0 0 50 50">
  <linearGradient id="a" gradientUnits="userSpaceOnUse" x1="-600.974" y1="246.065" x2="-600.9" y2="245.904" gradientTransform="matrix(155 0 0 -273 93169.992 67183.992)">
    <stop offset=".01" stop-color="#1cbfff"/>
    <stop offset=".86" stop-color="#bf71ff"/>
  </linearGradient>
  <path d="M38.241 22.581l-3.774-2.158V8.986c0-4.959-4.249-8.986-9.47-8.986s-9.468 4.027-9.468 8.974v6.452l-3.659 2.17c-.038.021-.076.035-.114.059-.038.023-.094.062-.141.091l-.026.018a1.888 1.888 0 0 0-.783 1.528v19.2c.002.679.364 1.306.95 1.648l16.61 9.601a1.865 1.865 0 0 0 1.83.038l.015.029 7.978-4.692-.021-.035c.572-.339.924-.954.927-1.619l.1-19.2a1.915 1.915 0 0 0-.954-1.681zM25 .428c4.984 0 9.039 3.833 9.039 8.546v14.329c0 .422-.293.833-.847 1.15a4.874 4.874 0 0 1-4.398 0c-.548-.317-.85-.724-.85-1.15V9.475a2.933 2.933 0 1 0-5.864 0l-.018.587v6.314c0 .425-.293.833-.847 1.15a4.874 4.874 0 0 1-4.398 0c-.548-.317-.85-.724-.85-1.15V8.974C15.957 4.261 20.012.428 25 .428zm2.518 9.044v6.95l-.586-.326-4.445-2.578V9.472a2.515 2.515 0 1 1 5.031 0zm3.273 38.623a1.467 1.467 0 0 1-2.211 1.267l-16.601-9.596a1.469 1.469 0 0 1-.736-1.279V19.291c0-.462.217-.896.586-1.173l.255-.15a1.43 1.43 0 0 1 1.36.044l16.713 9.604c.461.264.744.756.739 1.287l-.105 19.192zm7.869-4.648a1.468 1.468 0 0 1-.818 1.314l.018.032-6.776 4.003c.087-.22.133-.455.135-.692l.111-19.197a1.904 1.904 0 0 0-.953-1.66l-16.713-9.604a1.951 1.951 0 0 0-.645-.229l2.522-1.49v.452c0 .587.378 1.123 1.064 1.519 1.331.771 3.498.771 4.829 0 .686-.396 1.064-.936 1.064-1.519V14.03l4.225 2.428.795.46v6.384c0 .587.378 1.123 1.064 1.519a5.33 5.33 0 0 0 4.829 0c.686-.396 1.064-.936 1.064-1.519v-2.387l3.559 2.053c.46.263.743.754.739 1.284l-.113 19.195zM16.925 16.481a.108.108 0 0 0 .108-.106V8.974a7.177 7.177 0 0 1 .756-3.226.106.106 0 1 0-.193-.088 7.347 7.347 0 0 0-.777 3.314v7.402a.105.105 0 0 0 .106.105zm7.368-14.977c5.278 0 8.676 3.226 8.676 8.179 0 .058.047.106.106.106a.108.108 0 0 0 .108-.106c-.003-5.1-3.492-8.393-8.89-8.393a.11.11 0 0 0-.109.048.108.108 0 1 0 .109.166zm8.409 25.787a.14.14 0 0 0 .05 0l4.592-2.554a.109.109 0 0 0-.024-.199.103.103 0 0 0-.082.011l-4.589 2.543a.106.106 0 0 0-.054.121c.013.048.058.08.107.078z" fill="url(#a)"/>
</svg>
