<?xml version="1.0" encoding="utf-8"?>
<!-- Generator: Adobe Illustrator 24.1.0, SVG Export Plug-In . SVG Version: 6.00 Build 0)  -->
<svg version="1.1" id="Layer_1" xmlns="http://www.w3.org/2000/svg" xmlns:xlink="http://www.w3.org/1999/xlink" x="0px" y="0px"
	 width="120px" height="120px" viewBox="0 0 120 120" style="enable-background:new 0 0 120 120;" xml:space="preserve">
<style type="text/css">
	.st0{fill:url(#SVGID_1_);}
</style>
<linearGradient id="SVGID_1_" gradientUnits="userSpaceOnUse" x1="-626.7753" y1="334.0893" x2="-626.7753" y2="333.0905" gradientTransform="matrix(96.0601 0 0 -90.2335 60268.0859 30161.043)">
	<stop  offset="0" style="stop-color:#FF886A"/>
	<stop  offset="1" style="stop-color:#FFB87A"/>
</linearGradient>
<path class="st0" d="M58.1,98.857c12.375-0.01,23.751-6.796,29.64-17.68c19.23-14.12,21.42-22.6,19.9-27.24
	c-0.967-2.883-3.585-4.892-6.62-5.08c-3.31,0-7.32,2.91-9.23,4.47v-5.52c0-0.552-0.448-1-1-1H25.42c-0.552,0-1,0.448-1,1v17.37
	C24.442,83.769,39.508,98.835,58.1,98.857z M91.79,65.177v-9.28c0.088-0.037,0.169-0.087,0.24-0.15c1.48-1.36,6-4.89,9-4.89
	c2.164,0.199,4.01,1.647,4.72,3.7c1,3.11,0.11,10.08-16.23,22.77C91.021,73.452,91.791,69.332,91.79,65.177z M26.42,48.807h63.37
	v16.37c-0.307,17.28-14.403,31.127-31.685,31.127S26.727,82.457,26.42,65.177C26.42,65.177,26.42,48.807,26.42,48.807z
	 M56.42,28.507c2.24-4.08,4.17-7.6,0-11.8c-0.329-0.443-0.237-1.07,0.206-1.399c0.344-0.255,0.812-0.264,1.164-0.021
	c5.26,5.27,2.66,10,0.36,14.18s-3.63,7.07-0.36,10.34c0.388,0.39,0.388,1.02,0,1.41c-0.189,0.187-0.444,0.292-0.71,0.29
	c-0.266,0.002-0.521-0.103-0.71-0.29c-4.49-4.5-2.09-8.86,0.03-12.71C56.4,28.507,56.42,28.507,56.42,28.507z M66.72,28.507
	c2.24-4.08,4.17-7.6,0-11.8c-0.455-0.313-0.569-0.936-0.256-1.391c0.313-0.455,0.936-0.569,1.391-0.256
	c0.09,0.062,0.17,0.139,0.235,0.227c5.26,5.27,2.66,10,0.36,14.18c-2.3,4.18-3.63,7.07-0.36,10.34c0.388,0.39,0.388,1.02,0,1.41
	c-0.189,0.187-0.444,0.292-0.71,0.29c-0.266,0.002-0.521-0.103-0.71-0.29c-4.49-4.5-2.09-8.86,0.03-12.71
	C66.7,28.507,66.72,28.507,66.72,28.507z M46.12,28.507c2.24-4.08,4.17-7.6,0-11.8c-0.329-0.443-0.237-1.07,0.206-1.399
	c0.344-0.255,0.812-0.264,1.164-0.021c5.26,5.27,2.66,10,0.36,14.18s-3.63,7.07-0.36,10.34c0.388,0.39,0.388,1.02,0,1.41
	c-0.189,0.187-0.444,0.292-0.71,0.29c-0.266,0.002-0.521-0.103-0.71-0.29c-4.49-4.5-2.1-8.86,0.03-12.71
	C46.1,28.507,46.12,28.507,46.12,28.507z M105.12,104.117c0,0.552-0.448,1-1,1H12.97c-0.552,0-1-0.448-1-1s0.448-1,1-1h91.1
	c0.552,0,1,0.448,1,1H105.12z"/>
</svg>
