<svg xmlns="http://www.w3.org/2000/svg" viewBox="0 0 50 50">
  <linearGradient id="a" gradientUnits="userSpaceOnUse" x1="-624.587" y1="352.204" x2="-624.441" y2="352.074" gradientTransform="matrix(101.0793 0 0 -43.6255 63150.406 15387.241)">
    <stop offset="0" stop-color="#6afff3"/>
    <stop offset=".51" stop-color="#1cbfff"/>
    <stop offset="1" stop-color="#bf71ff"/>
  </linearGradient>
  <path d="M39.117 35.788c-4.585 0-8.629-3.804-12.382-7.848a.701.701 0 0 1 .036-.991.688.688 0 0 1 .973.036c3.54 3.821 7.328 7.406 11.372 7.406 3.366.071 6.506-1.704 8.21-4.639s1.703-6.571 0-9.506-4.844-4.709-8.21-4.639c-4.721 0-9.238 5.015-13.615 9.863-4.565 5.071-9.278 10.316-14.62 10.316-3.863.076-7.464-1.964-9.418-5.333s-1.953-7.541 0-10.91 5.555-5.408 9.418-5.333c4.597 0 8.666 3.837 12.446 7.92a.7.7 0 0 1-.036.983.688.688 0 0 1-.973-.036c-3.572-3.853-7.384-7.471-11.437-7.471-3.366-.071-6.506 1.704-8.21 4.639s-1.703 6.571 0 9.506 4.844 4.709 8.21 4.639c4.721 0 9.238-5.015 13.615-9.863 4.561-5.055 9.286-10.316 14.62-10.316 3.863-.076 7.464 1.964 9.418 5.333a10.89 10.89 0 0 1 0 10.91 10.65 10.65 0 0 1-9.417 5.334z" fill="url(#a)"/>
</svg>
