<?xml version="1.0" encoding="utf-8"?>
<svg version="1.1" id="Layer_1" xmlns="http://www.w3.org/2000/svg" xmlns:xlink="http://www.w3.org/1999/xlink" x="0px" y="0px"
	 viewBox="0 0 50 50" style="enable-background:new 0 0 50 50;" xml:space="preserve">
<style type="text/css">
	.st0{fill:url(#SVGID_1_);}
</style>
<linearGradient id="SVGID_1_" gradientUnits="userSpaceOnUse" x1="-643.425" y1="350.036" x2="-643.7332" y2="351.0857" gradientTransform="matrix(50.9996 0 0 -50.9989 32849.7266 17899.5918)">
	<stop  offset="0" style="stop-color:#BF71FF"/>
	<stop  offset="0.53" style="stop-color:#6A6AFF"/>
	<stop  offset="1" style="stop-color:#6AFFF3"/>
</linearGradient>
<path class="st0" d="M36.431,14.05c2.652,2.699,5.809,3.851,7.053,2.595c1.244-1.254,8.59-13.097,5.946-15.79
	c-2.646-2.692-14.352,4.781-15.555,6.036C32.672,8.146,33.773,11.359,36.431,14.05z M45.384,15.716
	c0.369,1.283,0.301,2.345-0.301,2.962c-2.269,2.304-9.779-3.066-12.213-7.951c-2.049-3.67-1.243-6.056,1.661-5.549
	c0.636-0.402,1.367-0.861,2.194-1.312C26.117-1.741,13.064,1.403,6.068,11.249c-6.994,9.848-5.814,23.413,2.776,31.861
	c8.589,8.447,21.984,9.217,31.457,1.808c9.474-7.41,12.156-20.754,6.3-31.339C46.205,14.296,45.799,15.009,45.384,15.716
	L45.384,15.716z M12.217,3.705C8.166,1.37,2.398-1.232,0.6,0.641C-1.197,2.514,1.394,8.515,3.718,12.63
	c2.049-3.633,4.97-6.699,8.5-8.922L12.217,3.705z"/>
</svg>
