<?xml version="1.0" encoding="utf-8"?>
<svg version="1.1" id="Layer_1" xmlns="http://www.w3.org/2000/svg" xmlns:xlink="http://www.w3.org/1999/xlink" x="0px" y="0px"
	 viewBox="0 0 50 50" style="enable-background:new 0 0 50 50;" xml:space="preserve">
<style type="text/css">
	.st0{fill:url(#SVGID_1_);}
</style>
<linearGradient id="SVGID_1_" gradientUnits="userSpaceOnUse" x1="-643.5934" y1="346.4806" x2="-643.7856" y2="347.2681" gradientTransform="matrix(50.9998 0 0 -61.9998 32849.875 21533.9121)">
	<stop  offset="0" style="stop-color:#BF71FF"/>
	<stop  offset="0.53" style="stop-color:#6A6AFF"/>
	<stop  offset="1" style="stop-color:#6AFFF3"/>
</linearGradient>
<path class="st0" d="M26.601,15.194c-0.934,0.596-1.996,0.96-3.099,1.061c-0.979-0.027-1.918-0.392-2.658-1.032
	c-0.319-0.256-0.581-0.507-0.778-0.694c-0.342-0.269-0.302-0.648-0.156-0.635c0.232,0.029,0.267,0.338,0.412,0.478
	c0.145,0.14,0.452,0.431,0.755,0.669c0.676,0.589,1.532,0.927,2.426,0.957c1.032-0.106,2.025-0.45,2.902-1.003
	c0.467-0.295,0.918-0.615,1.352-0.956c0.325-0.239,0.307-0.524,0.581-0.495c0.273,0.029,0.069,0.321-0.308,0.647
	C27.589,14.574,27.11,14.911,26.601,15.194z M44.07,39.447c-0.374-0.583-0.614-1.242-0.702-1.93
	c-0.098-0.82-0.458-1.587-1.027-2.185c-0.121-0.106-0.251-0.202-0.389-0.286c-0.129-0.073-0.263-0.138-0.401-0.192
	c0.788-2.538,0.661-5.272-0.36-7.726c-1.096-2.657-2.626-5.114-4.527-7.27c-1.654-2.098-3.274-4.081-3.239-7.031
	C33.473,8.337,33.914,0,26.049,0c-0.319,0-0.65,0-0.998,0.04c-8.798,0.706-6.436,10.034-6.598,13.159
	c-0.068,2.274-0.82,4.475-2.159,6.315c-1.84,2.198-4.423,5.748-5.653,9.445c-0.597,1.666-0.796,3.449-0.581,5.206
	c-0.079,0.072-0.154,0.148-0.226,0.227c-0.54,0.583-0.94,1.277-1.381,1.75c-0.485,0.388-1.05,0.664-1.654,0.81
	c-0.764,0.212-1.411,0.72-1.799,1.411c-0.206,0.37-0.315,0.788-0.314,1.212c0.009,0.391,0.048,0.781,0.116,1.166
	c0.159,0.665,0.185,1.354,0.081,2.029c-0.516,1.417-0.581,2.39-0.22,3.102c0.431,0.678,1.15,1.121,1.95,1.202
	c1.689,0.349,3.969,0.262,5.803,1.224l0.151-0.298l-0.151,0.298c1.927,1.008,3.877,1.369,5.438,1.014
	c1.101-0.227,2.029-0.962,2.502-1.982c1.219,0,2.554-0.524,4.702-0.641c1.451-0.123,3.267,0.519,5.356,0.403
	c0.049,0.224,0.127,0.442,0.232,0.647c0.699,1.502,2.268,2.401,3.918,2.244c1.864-0.252,3.553-1.233,4.695-2.728l-0.256-0.216
	l0.256,0.21c1.317-1.597,3.482-2.262,4.944-3.142c0.726-0.438,1.312-0.985,1.358-1.785C45.608,41.523,45.138,40.642,44.07,39.447
	L44.07,39.447z M24.651,10.127c-0.019-0.549,0.088-1.096,0.313-1.598c0.187-0.462,0.496-0.866,0.894-1.166
	c0.348-0.282,0.782-0.435,1.23-0.437c0.442,0.001,0.87,0.149,1.219,0.419c0.403,0.298,0.718,0.702,0.911,1.166
	c0.225,0.486,0.344,1.015,0.348,1.551c0.017,0.565-0.092,1.127-0.319,1.644c-0.113,0.269-0.263,0.519-0.447,0.746l-0.185-0.081
	c-0.193-0.082-0.386-0.162-0.581-0.24l-0.452-0.163c0.149-0.13,0.277-0.284,0.377-0.455c0.115-0.275,0.176-0.57,0.18-0.869v-0.035
	c0.01-0.287-0.033-0.574-0.127-0.846c-0.07-0.249-0.202-0.475-0.383-0.659c-0.151-0.16-0.361-0.251-0.581-0.25
	c-0.2,0.007-0.391,0.083-0.54,0.215c-0.191,0.172-0.339,0.388-0.429,0.629c-0.118,0.277-0.179,0.574-0.18,0.875
	c-0.003,0.012-0.003,0.024,0,0.035c0,0.168,0.011,0.335,0.035,0.501c-0.403-0.19-0.825-0.335-1.26-0.431
	c-0.024-0.158-0.035-0.318-0.035-0.478C24.639,10.202,24.651,10.127,24.651,10.127z M19.462,8.868
	c0.102-0.394,0.302-0.754,0.581-1.049c0.226-0.247,0.537-0.397,0.871-0.419h0.075c0.307,0.002,0.605,0.116,0.835,0.32
	c0.317,0.252,0.565,0.581,0.719,0.956c0.191,0.433,0.299,0.898,0.319,1.371c0.014,0.194,0.014,0.389,0,0.582l-0.174,0.052
	c-0.288,0.097-0.563,0.23-0.818,0.397c0.023-0.177,0.023-0.358,0-0.536v-0.029c-0.023-0.237-0.082-0.469-0.174-0.688
	c-0.072-0.194-0.189-0.369-0.343-0.508c-0.103-0.1-0.24-0.158-0.383-0.163h-0.035c-0.155,0.02-0.295,0.102-0.389,0.227
	c-0.13,0.171-0.215,0.371-0.25,0.583c-0.056,0.24-0.073,0.489-0.046,0.735c0.018,0.237,0.075,0.469,0.168,0.688
	c0.073,0.194,0.19,0.369,0.343,0.507l0.069,0.058l-0.36,0.28l-0.278,0.204c-0.248-0.244-0.446-0.535-0.581-0.856
	c-0.186-0.433-0.294-0.894-0.319-1.365C19.271,9.759,19.328,9.304,19.462,8.868z M19.688,13.34l1.005-0.746
	c0.215-0.158,0.302-0.216,0.371-0.28c0.481-0.536,1.076-0.956,1.742-1.231c0.314-0.108,0.643-0.163,0.974-0.163
	c0.906,0.038,1.782,0.34,2.519,0.869c0.703,0.358,1.433,0.661,2.181,0.91c0.418,0.138,0.771,0.424,0.993,0.804
	c0.14,0.307,0.14,0.661,0,0.968c-0.43,0.875-1.214,1.524-2.153,1.785c-0.565,0.25-1.106,0.555-1.613,0.909
	c-0.628,0.393-1.362,0.582-2.102,0.543c-0.319-0.013-0.633-0.082-0.928-0.204c-0.242-0.109-0.469-0.25-0.673-0.419
	c-0.397-0.382-0.824-0.731-1.277-1.044c-0.657-0.31-1.171-0.858-1.44-1.533C19.143,14.071,19.308,13.594,19.688,13.34L19.688,13.34z
	 M20.019,45.936c-0.011,1.349-0.99,2.495-2.321,2.717c-1.347,0.309-3.169,0-4.986-0.956c-2.014-1.073-4.411-0.968-5.944-1.289
	c-0.771-0.157-1.27-0.402-1.502-0.851c-0.232-0.449-0.232-1.236,0.256-2.577c0.159-0.771,0.14-1.569-0.058-2.331
	c-0.168-0.647-0.138-1.33,0.087-1.96c0.303-0.563,0.834-0.969,1.456-1.113c0.702-0.168,1.354-0.5,1.903-0.968
	c0.528-0.583,0.923-1.26,1.387-1.75c0.324-0.425,0.819-0.687,1.352-0.716c0.11-0.008,0.221-0.008,0.331,0
	c0.889,0.215,1.654,0.777,2.124,1.562l1.898,3.498c0.505,1.06,1.573,2.227,2.478,3.416c0.905,1.19,1.625,2.402,1.538,3.311
	L20.019,45.936L20.019,45.936z M19.857,43.412c-0.25-0.397-0.535-0.788-0.831-1.167c-0.187-0.25-0.381-0.494-0.581-0.734
	c0.331,0.007,0.66-0.056,0.964-0.187c0.305-0.129,0.544-0.377,0.661-0.688c0.227-0.583,0-1.457-0.714-2.437
	c-1.034-1.279-2.295-2.356-3.72-3.177c-1.131-0.642-1.983-1.681-2.391-2.915c-0.317-1.123-0.328-2.31-0.035-3.44
	c0.51-2.239,1.817-4.414,2.652-5.777c0.22-0.169,0.076,0.309-0.847,2.029c-0.825,1.574-2.374,5.212-0.256,8.051
	c0.079-2.066,0.533-4.101,1.34-6.005c1.161-2.676,3.633-7.311,3.825-11.008c0.105,0.077,0.447,0.31,0.581,0.398
	c0.432,0.305,0.841,0.642,1.224,1.008c0.512,0.429,1.149,0.678,1.816,0.711h0.29c0.731-0.002,1.448-0.204,2.073-0.583
	c0.49-0.335,1.006-0.629,1.544-0.88c0.862-0.241,1.623-0.755,2.17-1.464c0.892,3.221,2.101,6.346,3.61,9.329
	c1.095,1.97,1.878,4.098,2.323,6.308c0.358-0.001,0.715,0.046,1.061,0.14c1.341-3.498-1.161-7.247-2.269-8.29
	c-0.452-0.444-0.476-0.648-0.25-0.635c1.664,1.557,2.852,3.554,3.425,5.76c0.291,1.146,0.305,2.346,0.04,3.498l0.424,0.193
	c2.147,1.048,2.942,1.965,2.565,3.212h-0.464c0.313-0.992-0.377-1.749-2.218-2.554c-1.839-0.804-3.423-0.758-3.679,0.951
	c0,0.087,0,0.181-0.04,0.268c-0.147,0.056-0.291,0.12-0.43,0.193c-0.879,0.553-1.48,1.454-1.654,2.477
	c-0.26,1.287-0.402,2.594-0.423,3.906c-0.132,0.961-0.353,1.908-0.661,2.827c-3.117,2.234-7.447,3.202-11.127,0.677L19.857,43.412
	L19.857,43.412z M44.9,42.304c-0.029,0.49-0.383,0.856-1.039,1.253c-1.306,0.793-3.627,1.481-5.113,3.288
	c-1.031,1.353-2.553,2.247-4.237,2.49c-1.388,0.162-2.719-0.603-3.279-1.883c-0.435-0.834-0.256-2.151,0.11-3.539
	c0.366-1.387,0.9-2.81,0.969-3.965c0.023-1.269,0.159-2.533,0.406-3.778c0.119-0.848,0.605-1.6,1.329-2.058l0.098-0.046
	c0.076,1.282,0.708,2.594,1.828,2.874c1.225,0.326,2.99-0.729,3.732-1.592h0.435c0.626-0.073,1.254,0.112,1.74,0.513
	c0.447,0.518,0.729,1.157,0.813,1.836c0.105,0.792,0.407,1.546,0.877,2.193c1.027,1.143,1.358,1.912,1.329,2.407
	C44.9,42.298,44.9,42.304,44.9,42.304z M24.348,11.882c0.035,0.122,0.227,0.098,0.343,0.157c0.116,0.058,0.174,0.163,0.285,0.169
	c0.11,0.006,0.273-0.041,0.284-0.146c0.012-0.105-0.18-0.227-0.313-0.28c-0.172-0.076-0.368-0.076-0.54,0
	c-0.035,0-0.075,0.065-0.058,0.105C24.348,11.888,24.348,11.882,24.348,11.882z M23.188,11.882c-0.04,0.122-0.232,0.098-0.342,0.157
	c-0.11,0.058-0.181,0.163-0.29,0.169c-0.11,0.006-0.273-0.041-0.285-0.146c-0.011-0.105,0.185-0.227,0.314-0.28
	c0.172-0.076,0.368-0.076,0.54,0c0.035,0,0.076,0.065,0.065,0.105L23.188,11.882L23.188,11.882z"/>
</svg>
