<?xml version="1.0" encoding="utf-8"?>
<!-- Generator: Adobe Illustrator 24.1.0, SVG Export Plug-In . SVG Version: 6.00 Build 0)  -->
<svg version="1.1" id="Layer_1" xmlns="http://www.w3.org/2000/svg" xmlns:xlink="http://www.w3.org/1999/xlink" x="0px" y="0px"
	 width="120px" height="120px" viewBox="0 0 120 120" style="enable-background:new 0 0 120 120;" xml:space="preserve">
<style type="text/css">
	.st0{fill-rule:evenodd;clip-rule:evenodd;fill:url(#SVGID_1_);}
	.st1{fill-rule:evenodd;clip-rule:evenodd;fill:#9193A8;}
</style>
<g>
	
		<linearGradient id="SVGID_1_" gradientUnits="userSpaceOnUse" x1="-639.0549" y1="322.2386" x2="-638.7276" y2="321.014" gradientTransform="matrix(64 0 0 -116.27 40950 37462.0195)">
		<stop  offset="0" style="stop-color:#6AFFF3"/>
		<stop  offset="0.51" style="stop-color:#1CBFFF"/>
		<stop  offset="1" style="stop-color:#BF71FF"/>
	</linearGradient>
	<path class="st0" d="M92,113.135V6.865c0-2.761-2.239-5-5-5H33c-2.761,0-5,2.239-5,5v106.27c0,2.761,2.239,5,5,5h54
		C89.761,118.135,92,115.896,92,113.135z M87,3.865c1.657,0,3,1.343,3,3v106.27c0,1.657-1.343,3-3,3H33c-1.657,0-3-1.343-3-3V6.865
		c0-1.657,1.343-3,3-3H87z M65.22,106.125h-10c-0.552,0-1-0.448-1-1c0-0.552,0.448-1,1-1h10c0.552,0,1,0.448,1,1
		C66.22,105.677,65.772,106.125,65.22,106.125z"/>
	<g>
		<path class="st1" d="M73,72.505l-2.6-2.64c5.74-5.74,5.74-15.048,0-20.789c-5.741-5.74-15.049-5.74-20.79,0
			c-5.74,5.74-5.74,15.048,0,20.789L47,72.505c-7.192-7.18-7.201-18.83-0.022-26.022S65.808,39.282,73,46.462
			s7.201,18.83,0.022,26.022C73.014,72.491,73.007,72.498,73,72.505z"/>
		<path class="st1" d="M59.57,63.205l9.16-10.45l-1.96-1.96l-10.47,9.14L59.57,63.205z"/>
	</g>
</g>
</svg>
