<?xml version="1.0" encoding="utf-8"?>
<!-- Generator: Adobe Illustrator 24.1.0, SVG Export Plug-In . SVG Version: 6.00 Build 0)  -->
<svg version="1.1" id="Layer_1" xmlns="http://www.w3.org/2000/svg" xmlns:xlink="http://www.w3.org/1999/xlink" x="0px" y="0px"
	 width="120px" height="120px" viewBox="0 0 120 120" style="enable-background:new 0 0 120 120;" xml:space="preserve">
<style type="text/css">
	.st0{fill:none;}
	.st1{fill:url(#SVGID_1_);}
	.st2{fill:url(#SVGID_2_);}
	.st3{fill-rule:evenodd;clip-rule:evenodd;fill:#9193A8;}
	.st4{fill:#9193A8;}
	.st5{fill:url(#SVGID_3_);}
	.st6{fill:#FFFFFF;}
</style>
<g>
	<path class="st0" d="M65.125,104.125c0.552,0,1,0.448,1,1c0,0.552-0.448,1-1,1h-10c-0.552,0-1-0.448-1-1c0-0.552,0.448-1,1-1
		H65.125z"/>
	
		<linearGradient id="SVGID_1_" gradientUnits="userSpaceOnUse" x1="-627.239" y1="322.2205" x2="-626.9374" y2="321.092" gradientTransform="matrix(64 0 0 -116.27 40194 37462.0195)">
		<stop  offset="0" style="stop-color:#6AFFF3"/>
		<stop  offset="0.51" style="stop-color:#1CBFFF"/>
		<stop  offset="1" style="stop-color:#BF71FF"/>
	</linearGradient>
	<path class="st1" d="M89.905,77.025v36.11c0,1.657-1.343,3-3,3h-54c-1.657,0-3-1.343-3-3V6.865c0-1.657,1.343-3,3-3h54
		c1.657,0,3,1.343,3,3v12.12c0,0.552,0.448,1,1,1s1-0.448,1-1V6.865c0-2.761-2.239-5-5-5h-54c-2.761,0-5,2.239-5,5v106.27
		c0,2.761,2.239,5,5,5h54c2.761,0,5-2.239,5-5v-36.11c0-0.552-0.448-1-1-1S89.905,76.473,89.905,77.025z"/>
	
		<linearGradient id="SVGID_2_" gradientUnits="userSpaceOnUse" x1="-586.0197" y1="104.9444" x2="-580.7104" y2="103.1222" gradientTransform="matrix(12 0 0 -2 7044.2002 312.26)">
		<stop  offset="0" style="stop-color:#6AFFF3"/>
		<stop  offset="0.51" style="stop-color:#1CBFFF"/>
		<stop  offset="1" style="stop-color:#BF71FF"/>
	</linearGradient>
	<path class="st2" d="M54.105,105.125c0,0.552,0.448,1,1,1h10c0.552,0,1-0.448,1-1c0-0.552-0.448-1-1-1h-10
		C54.553,104.125,54.105,104.573,54.105,105.125z"/>
	<path class="st3" d="M41.905,95.525c1.798-1.795,1.8-4.707,0.005-6.505s-4.707-1.8-6.505-0.005c-1.798,1.795-1.8,4.707-0.005,6.505
		c0.002,0.002,0.004,0.004,0.005,0.005l0.67-0.66c-0.693-0.684-1.082-1.617-1.08-2.59c-0.008-2.032,1.633-3.686,3.666-3.694
		c2.032-0.008,3.686,1.633,3.694,3.666c0.004,0.982-0.385,1.925-1.08,2.619l0.65,0.65C41.925,95.515,41.905,95.525,41.905,95.525z"
		/>
	<path class="st3" d="M38.565,93.205l-0.82-0.82l2.62-2.28l0.49,0.49L38.565,93.205z"/>
	<path class="st4" d="M55.465,90.945h-0.1v-1.79c0-1.348-1.092-2.44-2.44-2.44c-1.348,0-2.44,1.092-2.44,2.44l0,0v1.79h-0.1
		c-0.668,0-1.21,0.542-1.21,1.21v3.13c0,0.67,0.54,1.215,1.21,1.22h5.08c0.67-0.005,1.21-0.55,1.21-1.22v-3.13
		C56.675,91.487,56.133,90.945,55.465,90.945z M51.365,89.155c0.001-0.862,0.7-1.559,1.561-1.559
		c0.861,0.001,1.558,0.698,1.559,1.559v1.79h-3.12V89.155z M55.795,95.285c0,0.182-0.148,0.33-0.33,0.33l0,0h-5.08
		c-0.182,0-0.33-0.148-0.33-0.33l0,0v-3.13c0-0.182,0.148-0.33,0.33-0.33l0,0h5.08c0.182,0,0.33,0.148,0.33,0.33l0,0V95.285z"/>
	<path class="st3" d="M68.755,90.255c0.149,0.148,0.15,0.388,0.003,0.537c-0.001,0.001-0.002,0.002-0.003,0.003l-2.29,2.28
		c-0.148,0.149-0.388,0.15-0.537,0.003c-0.001-0.001-0.002-0.002-0.003-0.003l-1-1c-0.074-0.07-0.114-0.168-0.11-0.27
		c-0.001-0.21,0.168-0.381,0.377-0.383c0.102-0.001,0.201,0.04,0.273,0.113l0.75,0.75l2-2c0.139-0.157,0.379-0.172,0.536-0.033
		C68.753,90.253,68.754,90.254,68.755,90.255z M67.005,87.915c-2.038-0.002-3.691,1.649-3.693,3.687
		c-0.002,2.038,1.649,3.691,3.687,3.693c0.002,0,0.004,0,0.006,0c2.038-0.002,3.689-1.655,3.687-3.693
		C70.69,89.566,69.04,87.917,67.005,87.915z M67.005,87.185c2.447,0,4.43,1.983,4.43,4.43c0,2.447-1.983,4.43-4.43,4.43
		c-2.447,0-4.43-1.983-4.43-4.43c0-0.003,0-0.007,0-0.01c0-2.441,1.979-4.42,4.42-4.42C66.998,87.185,67.002,87.185,67.005,87.185z"
		/>
	<path class="st4" d="M81.525,90.945c-0.37-0.006-0.674,0.29-0.68,0.66c-0.006,0.37,0.29,0.674,0.66,0.68
		c0.37,0.006,0.674-0.29,0.68-0.66C82.19,91.255,81.895,90.951,81.525,90.945z M81.525,90.285c0.735,0,1.33,0.595,1.33,1.33
		s-0.595,1.33-1.33,1.33c-0.735,0-1.33-0.595-1.33-1.33S80.79,90.285,81.525,90.285z M82.075,87.865h-1.08
		c-0.055,0.004-0.101,0.045-0.11,0.1l-0.16,1l-0.18,0.07c-0.264,0.1-0.51,0.242-0.73,0.42l-0.15,0.12l-1-0.38
		c-0.053-0.022-0.113,0-0.14,0.05l-0.54,0.93c-0.03,0.042-0.03,0.098,0,0.14l0.82,0.66v0.19c-0.015,0.14-0.015,0.28,0,0.42
		c-0.015,0.143-0.015,0.287,0,0.43v0.19l-0.82,0.65c-0.029,0.046-0.029,0.104,0,0.15l0.54,0.93c0.04,0.034,0.1,0.034,0.14,0l1-0.39
		l0.15,0.12c0.22,0.18,0.466,0.326,0.73,0.43l0.18,0.07l0.16,1c0.013,0.051,0.058,0.087,0.11,0.09h1.08
		c0.052-0.003,0.097-0.039,0.11-0.09l0.16-1l0.18-0.07c0.264-0.104,0.511-0.249,0.73-0.43l0.15-0.12l1,0.39
		c0.04,0.034,0.1,0.034,0.14,0l0.54-0.93c0.029-0.046,0.029-0.104,0-0.15l-0.82-0.65v-0.19c0.01-0.143,0.01-0.287,0-0.43
		c0.01-0.14,0.01-0.28,0-0.42v-0.19l0.82-0.66c0.03-0.042,0.03-0.098,0-0.14l-0.54-0.93c-0.027-0.05-0.087-0.072-0.14-0.05l-1,0.38
		l-0.15-0.12c-0.219-0.178-0.466-0.32-0.73-0.42l-0.18-0.07l-0.16-1C82.176,87.91,82.13,87.869,82.075,87.865z M82.075,87.205
		c0.384,0,0.71,0.28,0.77,0.66l0.1,0.67c0.2,0.09,0.392,0.201,0.57,0.33l0.63-0.25c0.355-0.141,0.759,0,0.95,0.33l0.54,0.94
		c0.197,0.334,0.116,0.762-0.19,1l-0.52,0.42v0.67l0.52,0.42c0.306,0.238,0.387,0.666,0.19,1l-0.54,0.93
		c-0.188,0.334-0.593,0.479-0.95,0.34l-0.63-0.25c-0.178,0.129-0.369,0.24-0.57,0.33l-0.1,0.67c-0.059,0.38-0.386,0.66-0.77,0.66
		h-1.08c-0.384,0-0.711-0.28-0.77-0.66l-0.1-0.67c-0.201-0.09-0.392-0.201-0.57-0.33l-0.63,0.25c-0.371,0.169-0.809,0.02-1-0.34
		l-0.54-0.93c-0.197-0.334-0.116-0.762,0.19-1l0.52-0.42v-0.34v-0.33l-0.47-0.44c-0.306-0.238-0.387-0.666-0.19-1l0.54-0.94
		c0.194-0.356,0.632-0.501,1-0.33l0.63,0.25c0.178-0.129,0.37-0.24,0.57-0.33l0.1-0.67c0.059-0.38,0.386-0.66,0.77-0.66
		C81.045,87.185,82.075,87.205,82.075,87.205z"/>
	
		<linearGradient id="SVGID_3_" gradientUnits="userSpaceOnUse" x1="-607.8251" y1="310.834" x2="-607.8251" y2="309.834" gradientTransform="matrix(22.44 0 0 -29.2672 13730.4717 9129.1211)">
		<stop  offset="0" style="stop-color:#FF886A"/>
		<stop  offset="1" style="stop-color:#FFB87A"/>
	</linearGradient>
	<path class="st5" d="M98.475,44.525h-0.29v-5.34c-0.002-4.037-3.276-7.309-7.313-7.307c-4.035,0.002-7.306,3.272-7.307,7.307v5.34
		h-0.29c-2,0-3.62,1.62-3.62,3.62v9.38c0,2,1.62,3.62,3.62,3.62h15.2c2,0,3.62-1.62,3.62-3.62v-9.38
		C102.095,46.145,100.475,44.525,98.475,44.525z M86.215,39.185c0-2.574,2.087-4.66,4.661-4.659c2.573,0,4.659,2.086,4.659,4.659
		v5.34h-9.32V39.185z M99.455,57.525c0,0.552-0.448,1-1,1h-15.18c-0.552,0-1-0.448-1-1v-9.38c0-0.552,0.448-1,1-1h15.2
		c0.552,0,1,0.448,1,1C99.475,48.145,99.455,57.525,99.455,57.525z"/>
	<path class="st6" d="M114.045,47.715v0.34c0.009,0.955-0.038,1.91-0.14,2.86c-0.07,0.548,0.317,1.049,0.864,1.119
		c0.002,0,0.004,0,0.006,0.001c0.547,0.076,1.052-0.306,1.128-0.853c0.001-0.006,0.002-0.011,0.002-0.017
		c0.129-1.032,0.192-2.07,0.19-3.11v-0.37c0-0.552-0.448-1-1-1s-1,0.448-1,1L114.045,47.715z M112.685,40.205
		c0.328,0.898,0.596,1.816,0.8,2.75c0.119,0.539,0.652,0.881,1.191,0.762c0.003-0.001,0.006-0.001,0.009-0.002
		c0.538-0.12,0.878-0.652,0.76-1.19c-0.226-1.017-0.517-2.019-0.87-3c-0.188-0.522-0.763-0.793-1.285-0.605
		C112.768,39.108,112.497,39.683,112.685,40.205z M108.965,33.545c0.599,0.738,1.15,1.512,1.65,2.32
		c0.342,0.434,0.971,0.508,1.404,0.167c0.351-0.277,0.476-0.753,0.306-1.167c-0.547-0.886-1.148-1.738-1.8-2.55
		c-0.332-0.442-0.959-0.531-1.4-0.199c-0.442,0.332-0.531,0.959-0.199,1.4c0.013,0.017,0.026,0.033,0.039,0.049
		C108.965,33.565,108.965,33.545,108.965,33.545z M103.285,28.435c0.806,0.517,1.581,1.081,2.32,1.69
		c0.424,0.354,1.055,0.296,1.408-0.128c0.001-0.001,0.001-0.001,0.002-0.002c0.359-0.42,0.31-1.051-0.11-1.41c0,0,0,0,0,0
		c-0.807-0.659-1.652-1.27-2.53-1.83c-0.464-0.297-1.081-0.163-1.38,0.3c-0.295,0.467-0.157,1.084,0.31,1.38c0,0,0,0,0,0
		C103.305,28.435,103.285,28.435,103.285,28.435z M96.285,25.435c0.933,0.222,1.852,0.503,2.75,0.84
		c0.517,0.194,1.094-0.067,1.288-0.584c0.093-0.248,0.084-0.522-0.025-0.764c-0.111-0.242-0.313-0.43-0.563-0.522
		c-0.981-0.366-1.983-0.673-3-0.92c-0.54-0.123-1.078,0.215-1.201,0.755c-0.121,0.531,0.203,1.061,0.731,1.195
		C96.265,25.435,96.285,25.435,96.285,25.435z M88.665,24.895c0.72-0.07,1.44-0.1,2.18-0.1h0.7c0.552,0.017,1.013-0.418,1.03-0.97
		c0.017-0.552-0.418-1.013-0.97-1.03h-0.76c-0.788-0.004-1.576,0.033-2.36,0.11c-0.547,0.074-0.931,0.577-0.858,1.124
		C87.696,24.543,88.147,24.919,88.665,24.895z M81.265,26.865c0.858-0.388,1.74-0.722,2.64-1c0.532-0.147,0.845-0.697,0.699-1.23
		s-0.697-0.845-1.23-0.699c-0.02,0.005-0.039,0.012-0.059,0.018c-0.997,0.301-1.972,0.669-2.92,1.1c-0.5,0.24-0.71,0.84-0.47,1.34
		C80.165,26.895,80.765,27.105,81.265,26.865z M74.905,31.095c0.702-0.65,1.44-1.261,2.21-1.83c0.447-0.324,0.547-0.95,0.222-1.397
		c-0.001-0.001-0.002-0.002-0.002-0.003c-0.324-0.447-0.95-0.547-1.397-0.222c-0.001,0.001-0.002,0.002-0.003,0.002
		c-0.838,0.62-1.639,1.288-2.4,2c-0.392,0.389-0.394,1.023-0.005,1.415c0.389,0.392,1.023,0.394,1.415,0.005
		C74.945,31.065,74.905,31.095,74.905,31.095z M70.275,37.165c0.448-0.848,0.949-1.666,1.5-2.45c0.35-0.427,0.287-1.057-0.14-1.407
		c-0.427-0.35-1.057-0.287-1.407,0.14c-0.03,0.037-0.058,0.076-0.083,0.117c-0.602,0.852-1.149,1.74-1.64,2.66
		c-0.26,0.489-0.074,1.095,0.415,1.355C69.409,37.84,70.015,37.654,70.275,37.165z M67.905,44.405
		c0.149-0.949,0.356-1.887,0.62-2.81c0.153-0.531-0.153-1.085-0.683-1.238c-0.255-0.074-0.529-0.043-0.761,0.085
		c-0.233,0.13-0.404,0.347-0.476,0.603c-0.283,0.986-0.507,1.988-0.67,3c-0.075,0.554,0.313,1.065,0.867,1.14
		c0.536,0.073,1.035-0.288,1.133-0.82L67.905,44.405z M67.905,52.035c-0.163-0.946-0.27-1.901-0.32-2.86
		c-0.028-0.552-0.498-0.978-1.05-0.95s-0.978,0.498-0.95,1.05l0,0c0.047,1.04,0.16,2.075,0.34,3.1
		c0.094,0.552,0.618,0.924,1.17,0.83c0.552-0.094,0.924-0.618,0.83-1.17C67.925,52.035,67.905,52.035,67.905,52.035z M70.425,59.235
		c-0.463-0.839-0.87-1.708-1.22-2.6c-0.204-0.514-0.786-0.764-1.3-0.56c-0.514,0.204-0.764,0.786-0.56,1.3
		c0.38,0.968,0.825,1.91,1.33,2.82c0.286,0.478,0.905,0.633,1.383,0.346c0.464-0.278,0.626-0.872,0.367-1.346
		C70.425,59.195,70.425,59.235,70.425,59.235z M75.155,65.235c-0.709-0.648-1.377-1.339-2-2.07c-0.359-0.42-0.99-0.469-1.41-0.11
		c-0.42,0.359-0.469,0.99-0.11,1.41c0.677,0.79,1.402,1.538,2.17,2.24c0.382,0.399,1.015,0.413,1.414,0.031s0.413-1.015,0.031-1.414
		C75.22,65.291,75.188,65.262,75.155,65.235z M81.565,69.375c-0.882-0.375-1.737-0.809-2.56-1.3
		c-0.447-0.325-1.072-0.226-1.397,0.221c-0.325,0.447-0.226,1.072,0.221,1.397c0.055,0.04,0.114,0.074,0.176,0.103
		c0.896,0.531,1.825,1.005,2.78,1.42c0.508,0.221,1.099-0.012,1.32-0.52c0.221-0.508-0.012-1.099-0.52-1.32
		C81.585,69.375,81.565,69.375,81.565,69.375z M88.965,71.215c-0.954-0.072-1.903-0.206-2.84-0.4
		c-0.55-0.121-1.094,0.226-1.216,0.776s0.226,1.094,0.776,1.216c0.013,0.003,0.026,0.005,0.039,0.008
		c1.02,0.208,2.052,0.355,3.09,0.44c0.553,0.031,1.026-0.393,1.057-0.946c0.03-0.538-0.371-1.003-0.907-1.054V71.215z
		 M96.575,70.565c-0.927,0.241-1.869,0.422-2.82,0.54c-0.551,0.081-0.932,0.592-0.852,1.143c0.078,0.535,0.564,0.913,1.102,0.857
		c1.034-0.132,2.059-0.325,3.07-0.58c0.532-0.151,0.841-0.705,0.69-1.238c-0.146-0.514-0.67-0.823-1.19-0.702V70.565z
		 M103.575,67.475c-0.802,0.517-1.637,0.981-2.5,1.39c-0.492,0.253-0.686,0.857-0.433,1.349c0.246,0.478,0.825,0.677,1.313,0.451
		c0.933-0.463,1.838-0.981,2.71-1.55c0.464-0.304,0.594-0.926,0.29-1.39c-0.304-0.464-0.926-0.594-1.39-0.29l0,0L103.575,67.475z
		 M109.185,62.295c-0.59,0.757-1.225,1.478-1.9,2.16c-0.345,0.431-0.275,1.061,0.156,1.406c0.363,0.291,0.879,0.292,1.244,0.004
		c0.737-0.737,1.429-1.518,2.07-2.34c0.34-0.436,0.261-1.065-0.175-1.405c-0.436-0.34-1.065-0.261-1.405,0.175H109.185z
		 M112.815,55.585c-0.315,0.904-0.682,1.789-1.1,2.65c-0.253,0.492-0.059,1.096,0.433,1.349c0.492,0.253,1.096,0.059,1.349-0.433
		c0.006-0.012,0.012-0.024,0.018-0.036c0.456-0.938,0.853-1.903,1.19-2.89c0.212-0.51-0.029-1.095-0.539-1.307
		s-1.095,0.029-1.307,0.539C112.841,55.499,112.827,55.541,112.815,55.585z M69.435,73.635l1.95-2.28
		c0.287-0.472,0.138-1.087-0.334-1.374c-0.36-0.219-0.818-0.189-1.146,0.074l-2,2.29c-0.356,0.423-0.302,1.054,0.12,1.41
		C68.447,74.111,69.079,74.057,69.435,73.635z M64.245,79.725l1.94-2.28c0.359-0.42,0.31-1.051-0.11-1.41
		c-0.42-0.359-1.051-0.31-1.41,0.11l-1.95,2.28c-0.366,0.414-0.327,1.046,0.086,1.412c0.011,0.01,0.022,0.019,0.034,0.028
		c0.427,0.351,1.057,0.29,1.408-0.137C64.243,79.727,64.244,79.726,64.245,79.725z M59.045,85.805l2-2.28
		c0.359-0.42,0.31-1.051-0.11-1.41c-0.42-0.359-1.051-0.31-1.41,0.11l-1.95,2.28c-0.359,0.42-0.31,1.051,0.11,1.41
		c0.42,0.359,1.051,0.31,1.41-0.11H59.045z"/>
</g>
</svg>
